<svg width="23" height="23" viewBox="0 0 23 23" fill="none" xmlns="http://www.w3.org/2000/svg">
<path d="M15.0938 11.8652V19.5859C15.0938 20.6775 14.238 21.5625 13.1644 21.5625H4.80667C3.73079 21.5625 2.87503 20.6775 2.87503 19.5859V7.72656C2.8781 7.20329 3.08732 6.70232 3.45734 6.33231C3.82735 5.96229 4.32832 5.75306 4.85159 5.75H9.07964C9.22599 5.75022 9.37083 5.77957 9.50572 5.83633C9.64061 5.8931 9.76285 5.97614 9.86532 6.08063L14.7685 11.067C14.9772 11.2803 15.0939 11.5668 15.0938 11.8652V11.8652Z" stroke="#C989DD" stroke-width="1.4375" stroke-linejoin="round"/>
<path d="M8.98438 5.75V10.6016C8.98834 10.9339 9.12213 11.2516 9.35716 11.4866C9.59219 11.7216 9.90983 11.8554 10.2422 11.8594H15.0938" stroke="#C989DD" stroke-width="1.4375" stroke-linecap="round" stroke-linejoin="round"/>
<path d="M7.90631 5.75V3.41406C7.90938 2.89079 8.1186 2.38982 8.48862 2.01981C8.85863 1.64979 9.3596 1.44056 9.88287 1.4375H14.1055C14.2527 1.4377 14.3983 1.46702 14.5341 1.52377C14.6699 1.58051 14.7931 1.66356 14.8966 1.76813L19.7998 6.75445C20.0083 6.9655 20.1252 7.25023 20.1251 7.54688V15.2734C20.1251 16.365 19.2693 17.25 18.1957 17.25H15.4532" stroke="#C989DD" stroke-width="1.4375" stroke-linejoin="round"/>
<path d="M14.0156 1.4375V6.28906C14.0196 6.62142 14.1534 6.93906 14.3884 7.17409C14.6234 7.40912 14.9411 7.54291 15.2734 7.54688H20.125" stroke="#C989DD" stroke-width="1.4375" stroke-linecap="round" stroke-linejoin="round"/>
</svg>
