<svg width="18" height="20" viewBox="0 0 18 20" fill="none" xmlns="http://www.w3.org/2000/svg">
<path d="M6.06644 9.26667C5.09398 9.26667 4.16135 8.88037 3.47371 8.19273C2.78608 7.5051 2.39977 6.57247 2.39977 5.60001V2.66667C2.39977 2.47218 2.47703 2.28566 2.61456 2.14813C2.75209 2.0106 2.93861 1.93334 3.13311 1.93334H3.86644C4.06093 1.93334 4.24746 1.85608 4.38498 1.71855C4.52251 1.58103 4.59977 1.3945 4.59977 1.20001C4.59977 1.00552 4.52251 0.81899 4.38498 0.681463C4.24746 0.543936 4.06093 0.466675 3.86644 0.466675H3.13311C2.54963 0.466675 1.99005 0.69846 1.57747 1.11104C1.16489 1.52362 0.933105 2.0832 0.933105 2.66667V5.60001C0.934048 6.42848 1.13607 7.24435 1.52183 7.97753C1.90758 8.71072 2.46553 9.33932 3.14777 9.80934C3.80325 10.3872 4.33483 11.0919 4.71042 11.8809C5.08602 12.6699 5.29784 13.5269 5.33311 14.4C5.33311 15.7615 5.87394 17.0671 6.83662 18.0298C7.79931 18.9925 9.10499 19.5333 10.4664 19.5333C11.8279 19.5333 13.1336 18.9925 14.0963 18.0298C15.0589 17.0671 15.5998 15.7615 15.5998 14.4V13.564C16.2911 13.3855 16.8935 12.961 17.2942 12.3701C17.6949 11.7792 17.8664 11.0625 17.7764 10.3542C17.6864 9.64594 17.3412 8.9948 16.8055 8.52284C16.2698 8.05087 15.5804 7.79049 14.8664 7.79049C14.1525 7.79049 13.463 8.05087 12.9273 8.52284C12.3916 8.9948 12.0464 9.64594 11.9565 10.3542C11.8665 11.0625 12.038 11.7792 12.4387 12.3701C12.8394 12.961 13.4418 13.3855 14.1331 13.564V14.4C14.1331 15.3725 13.7468 16.3051 13.0592 16.9927C12.3715 17.6804 11.4389 18.0667 10.4664 18.0667C9.49398 18.0667 8.56135 17.6804 7.87371 16.9927C7.18608 16.3051 6.79977 15.3725 6.79977 14.4C6.83689 13.5258 7.05101 12.6682 7.42915 11.8791C7.8073 11.0901 8.34162 10.3859 8.99977 9.80934C9.6793 9.33769 10.2344 8.70837 10.6175 7.97529C11.0007 7.2422 11.2005 6.42718 11.1998 5.60001V2.66667C11.1998 2.0832 10.968 1.52362 10.5554 1.11104C10.1428 0.69846 9.58325 0.466675 8.99977 0.466675H8.26644C8.07195 0.466675 7.88542 0.543936 7.74789 0.681463C7.61037 0.81899 7.53311 1.00552 7.53311 1.20001C7.53311 1.3945 7.61037 1.58103 7.74789 1.71855C7.88542 1.85608 8.07195 1.93334 8.26644 1.93334H8.99977C9.19426 1.93334 9.38079 2.0106 9.51832 2.14813C9.65584 2.28566 9.73311 2.47218 9.73311 2.66667V5.60001C9.73311 6.08152 9.63826 6.55832 9.454 7.00318C9.26973 7.44804 8.99965 7.85225 8.65916 8.19273C8.31868 8.53321 7.91447 8.8033 7.46961 8.98757C7.02475 9.17183 6.54795 9.26667 6.06644 9.26667V9.26667ZM14.8664 12.2C14.4775 12.2 14.1044 12.0455 13.8293 11.7704C13.5543 11.4954 13.3998 11.1223 13.3998 10.7333C13.3998 10.3444 13.5543 9.9713 13.8293 9.69625C14.1044 9.4212 14.4775 9.26667 14.8664 9.26667C15.2554 9.26667 15.6285 9.4212 15.9035 9.69625C16.1786 9.9713 16.3331 10.3444 16.3331 10.7333C16.3331 11.1223 16.1786 11.4954 15.9035 11.7704C15.6285 12.0455 15.2554 12.2 14.8664 12.2Z" fill="white"/>
</svg>
