<svg width="32" height="32" viewBox="0 0 32 32" fill="none" xmlns="http://www.w3.org/2000/svg">
<path d="M16.0001 11.8344C13.7063 11.8344 11.8345 13.7063 11.8345 16C11.8345 18.2938 13.7063 20.1656 16.0001 20.1656C18.2938 20.1656 20.1657 18.2938 20.1657 16C20.1657 13.7063 18.2938 11.8344 16.0001 11.8344ZM28.4938 16C28.4938 14.275 28.5095 12.5656 28.4126 10.8438C28.3157 8.84376 27.8595 7.06876 26.397 5.60626C24.9313 4.14063 23.1595 3.68751 21.1595 3.59063C19.4345 3.49376 17.7251 3.50938 16.0032 3.50938C14.2782 3.50938 12.5688 3.49376 10.847 3.59063C8.84696 3.68751 7.07196 4.14376 5.60946 5.60626C4.14384 7.07188 3.69071 8.84376 3.59384 10.8438C3.49696 12.5688 3.51259 14.2781 3.51259 16C3.51259 17.7219 3.49696 19.4344 3.59384 21.1563C3.69071 23.1563 4.14696 24.9313 5.60946 26.3938C7.07509 27.8594 8.84696 28.3125 10.847 28.4094C12.572 28.5063 14.2813 28.4906 16.0032 28.4906C17.7282 28.4906 19.4376 28.5063 21.1595 28.4094C23.1595 28.3125 24.9345 27.8563 26.397 26.3938C27.8626 24.9281 28.3157 23.1563 28.4126 21.1563C28.5126 19.4344 28.4938 17.725 28.4938 16ZM16.0001 22.4094C12.4532 22.4094 9.59071 19.5469 9.59071 16C9.59071 12.4531 12.4532 9.59063 16.0001 9.59063C19.547 9.59063 22.4095 12.4531 22.4095 16C22.4095 19.5469 19.547 22.4094 16.0001 22.4094ZM22.672 10.825C21.8438 10.825 21.1751 10.1563 21.1751 9.32813C21.1751 8.50001 21.8438 7.83126 22.672 7.83126C23.5001 7.83126 24.1688 8.50001 24.1688 9.32813C24.1691 9.52478 24.1305 9.71953 24.0554 9.90126C23.9803 10.083 23.87 10.2481 23.731 10.3871C23.5919 10.5262 23.4268 10.6364 23.2451 10.7116C23.0634 10.7867 22.8686 10.8253 22.672 10.825Z" fill="url(#paint0_linear_2_112)"/>
<defs>
<linearGradient id="paint0_linear_2_112" x1="16.0034" y1="3.50845" x2="16.0034" y2="28.4916" gradientUnits="userSpaceOnUse">
<stop stop-color="#9E58FF"/>
<stop offset="1" stop-color="#C989DD"/>
</linearGradient>
</defs>
</svg>
